<svg xmlns="http://www.w3.org/2000/svg" viewBox="0 0 22.13 30.48"><defs><style>.cls-1{fill:#00abec;}</style></defs><title>iconAsset 6</title><g id="Layer_2" data-name="Layer 2"><g id="Layer_1-2" data-name="Layer 1"><path class="cls-1" d="M21.45,0H3.78A3.79,3.79,0,0,0,0,3.78V26.7a3.79,3.79,0,0,0,3.78,3.78H21.45a.68.68,0,0,0,.68-.68V.68A.68.68,0,0,0,21.45,0ZM3.1,29a2.42,2.42,0,0,1-1.74-2.33v-20a3.73,3.73,0,0,0,1.74.82ZM3.78,6.2a2.42,2.42,0,0,1,0-4.85H18.55a3.77,3.77,0,0,0,0,4.85H3.78ZM16.37,7.55v4l-.81-.6a.69.69,0,0,0-.81,0l-.82.61v-4h2.44Zm4.4,21.56H4.45V7.55h8.12v5.33a.68.68,0,0,0,.37.6.65.65,0,0,0,.3.07.68.68,0,0,0,.41-.13l1.5-1.12,1.48,1.1a.68.68,0,0,0,.71.06.68.68,0,0,0,.37-.6V7.55h3V29.12Zm0-23a2.43,2.43,0,0,1,0-4.66V6.1Z"/></g></g></svg>