<svg xmlns="http://www.w3.org/2000/svg" viewBox="0 0 28.56 32.48"><defs><style>.cls-1{fill:#00abec;}</style></defs><title>iconAsset 10</title><g id="Layer_2" data-name="Layer 2"><g id="Layer_1-2" data-name="Layer 1"><path class="cls-1" d="M28.49,2.61A.67.67,0,0,0,27.82,2H23.76V.68A.68.68,0,0,0,23.08,0H5.49a.68.68,0,0,0-.68.68V2H.75a.68.68,0,0,0-.67.58A13.43,13.43,0,0,0,.39,7.23,9.6,9.6,0,0,0,6,14.06a9.49,9.49,0,0,0,6.26,4.67v3.6h-2a2,2,0,0,0-2,2H6.84a.68.68,0,0,0-.68.68v6.77a.68.68,0,0,0,.68.68H21.73a.68.68,0,0,0,.68-.68V25a.68.68,0,0,0-.68-.68H20.37a2,2,0,0,0-2-2h-2v-3.6a9.49,9.49,0,0,0,6.26-4.67,9.62,9.62,0,0,0,5.6-6.83A13.47,13.47,0,0,0,28.49,2.61ZM1.72,7a12.84,12.84,0,0,1-.34-3.57H4.81V9.47a9.7,9.7,0,0,0,.36,2.61A8.33,8.33,0,0,1,1.72,7ZM21.05,25.71v5.41H7.52V25.71Zm-2.71-2a.68.68,0,0,1,.68.68H9.55a.68.68,0,0,1,.68-.68Zm-4.73-1.35V18.92l.68,0c.23,0,.45,0,.68,0v3.41ZM22.4,9.47a8.12,8.12,0,1,1-16.24,0V1.35H22.4ZM26.86,7a8.29,8.29,0,0,1-3.46,5.13,9.46,9.46,0,0,0,.36-2.61V3.38h3.44A12.53,12.53,0,0,1,26.86,7Z" transform="translate(0)"/><path class="cls-1" d="M9.55,29.1H19a.68.68,0,0,0,0-1.36H9.55a.68.68,0,0,0,0,1.36Z" transform="translate(0)"/><path class="cls-1" d="M12.12,12.83a.74.74,0,0,1-.73-.86l.35-2L10.26,8.49a.73.73,0,0,1,.42-1.25l2-.3.92-1.87a.74.74,0,0,1,.66-.39h0a.73.73,0,0,1,.65.4h0l.91,1.86,2,.3a.74.74,0,0,1,.41,1.25h0L16.83,9.93l.35,2a.74.74,0,0,1-1.07.77l-1.82-1-1.83,1A.71.71,0,0,1,12.12,12.83Zm-.13-1h0Zm4.59,0h0Zm-5.2-3.68,1.18,1.15a.74.74,0,0,1,.21.65l-.28,1.63L14,10.82a.75.75,0,0,1,.66,0h0l1.46.76L15.81,10a.74.74,0,0,1,.2-.65h0l1.18-1.14-1.64-.24A.73.73,0,0,1,15,7.52L14.29,6l-.73,1.47a.73.73,0,0,1-.55.41h0Zm6.38.08h0Zm-6.93,0h0Z" transform="translate(0)"/></g></g></svg>