<svg width="209" height="209" viewBox="0 0 209 209" fill="none" xmlns="http://www.w3.org/2000/svg">
<path d="M104.5 0C46.7722 0 0 46.7722 0 104.5C0 162.228 46.7722 209 104.5 209C162.228 209 209 162.228 209 104.5C209 46.7722 162.228 0 104.5 0ZM104.5 40.4516C124.979 40.4516 141.581 57.0536 141.581 77.5323C141.581 98.0109 124.979 114.613 104.5 114.613C84.0214 114.613 67.4194 98.0109 67.4194 77.5323C67.4194 57.0536 84.0214 40.4516 104.5 40.4516ZM104.5 185.403C79.7655 185.403 57.6014 174.195 42.7692 156.666C50.6909 141.749 66.1974 131.468 84.2742 131.468C85.2855 131.468 86.2968 131.636 87.2659 131.931C92.7437 133.701 98.4744 134.839 104.5 134.839C110.526 134.839 116.298 133.701 121.734 131.931C122.703 131.636 123.715 131.468 124.726 131.468C142.803 131.468 158.309 141.749 166.231 156.666C151.399 174.195 129.234 185.403 104.5 185.403Z" fill="#E5E5E5"/>
</svg>
